<svg width="54" height="54" viewBox="0 0 54 54" fill="none" xmlns="http://www.w3.org/2000/svg">
<path d="M8.63614 53.0455H44.4003C50.144 53.0455 53.0455 50.1167 53.0455 44.4811V8.56436C53.0455 2.92881 50.144 0 44.4003 0H8.63614C2.92178 0 0 2.88135 0 8.56436V44.4811C0 50.1641 2.92178 53.0455 8.63614 53.0455ZM28.8577 36.1831C27.3984 37.7232 25.7188 37.7323 24.2596 36.1831L11.906 23.2696C11.1773 22.5026 11.1592 21.4435 11.8342 20.7372C12.5356 20.0065 13.7007 19.9793 14.3687 20.7058L26.5688 33.4435L38.7486 20.7058C39.4166 19.9793 40.5615 20.0267 41.2831 20.7372C41.9783 21.4233 41.9399 22.5026 41.2113 23.2696L28.8577 36.1831Z" fill="black" fill-opacity="0.85"/>
</svg>
