<svg width="414" height="71" viewBox="0 0 414 71" fill="none" xmlns="http://www.w3.org/2000/svg">
<g clip-path="url(#clip0)">
<path fill-rule="evenodd" clip-rule="evenodd" d="M43.6165 63.6884C41.039 64.4292 38.3158 64.8261 35.5 64.8261C32.6842 64.8261 29.961 64.4292 27.3835 63.6884L30.7359 42.1369H40.2641L43.6165 63.6884ZM47.4595 62.2847C57.6944 57.7078 64.8261 47.4367 64.8261 35.5C64.8261 19.3037 51.6964 6.17391 35.5 6.17391C19.3037 6.17391 6.17391 19.3037 6.17391 35.5C6.17391 47.4367 13.3056 57.7077 23.5405 62.2846L26.8721 40.867C27.1177 39.2882 28.4772 38.1239 30.0749 38.1239H31.2459L33.6796 25.1439C34.0573 23.1295 36.9428 23.1295 37.3205 25.1439L39.7543 38.1239H40.925C42.5228 38.1239 43.8822 39.2882 44.1278 40.867L47.4595 62.2847ZM35.4529 71L35.5 71L35.5471 71H35.5879L35.5877 70.9999C55.1535 70.9526 71 55.0769 71 35.5C71 15.8939 55.1061 0 35.5 0C15.8939 0 0 15.8939 0 35.5C0 45.1831 3.87683 53.9607 10.163 60.3654L11.0977 61.3492C11.8205 62.1101 11.8921 63.2804 11.2674 64.1237L7.99776 68.5378C7.24321 69.5564 7.97036 71 9.23803 71H35.4529Z" fill="#023047"/>
<path d="M94.268 54.66V63H92.9V54.66H94.268ZM105.808 54.66V63H104.44V57.288L101.896 63H100.948L98.3921 57.288V63H97.0241V54.66H98.5001L101.428 61.2L104.344 54.66H105.808ZM114.398 57.144C114.398 57.568 114.298 57.968 114.098 58.344C113.898 58.72 113.578 59.028 113.138 59.268C112.698 59.5 112.134 59.616 111.446 59.616H109.934V63H108.566V54.66H111.446C112.086 54.66 112.626 54.772 113.066 54.996C113.514 55.212 113.846 55.508 114.062 55.884C114.286 56.26 114.398 56.68 114.398 57.144ZM111.446 58.5C111.966 58.5 112.354 58.384 112.61 58.152C112.866 57.912 112.994 57.576 112.994 57.144C112.994 56.232 112.478 55.776 111.446 55.776H109.934V58.5H111.446ZM120.995 63L119.075 59.664H118.031V63H116.663V54.66H119.543C120.183 54.66 120.723 54.772 121.163 54.996C121.611 55.22 121.943 55.52 122.159 55.896C122.383 56.272 122.495 56.692 122.495 57.156C122.495 57.7 122.335 58.196 122.015 58.644C121.703 59.084 121.219 59.384 120.563 59.544L122.627 63H120.995ZM118.031 58.572H119.543C120.055 58.572 120.439 58.444 120.695 58.188C120.959 57.932 121.091 57.588 121.091 57.156C121.091 56.724 120.963 56.388 120.707 56.148C120.451 55.9 120.063 55.776 119.543 55.776H118.031V58.572ZM129.009 63.084C128.233 63.084 127.517 62.904 126.861 62.544C126.213 62.176 125.697 61.668 125.313 61.02C124.937 60.364 124.749 59.628 124.749 58.812C124.749 57.996 124.937 57.264 125.313 56.616C125.697 55.968 126.213 55.464 126.861 55.104C127.517 54.736 128.233 54.552 129.009 54.552C129.793 54.552 130.509 54.736 131.157 55.104C131.813 55.464 132.329 55.968 132.705 56.616C133.081 57.264 133.269 57.996 133.269 58.812C133.269 59.628 133.081 60.364 132.705 61.02C132.329 61.668 131.813 62.176 131.157 62.544C130.509 62.904 129.793 63.084 129.009 63.084ZM129.009 61.896C129.561 61.896 130.053 61.772 130.485 61.524C130.917 61.268 131.253 60.908 131.493 60.444C131.741 59.972 131.865 59.428 131.865 58.812C131.865 58.196 131.741 57.656 131.493 57.192C131.253 56.728 130.917 56.372 130.485 56.124C130.053 55.876 129.561 55.752 129.009 55.752C128.457 55.752 127.965 55.876 127.533 56.124C127.101 56.372 126.761 56.728 126.513 57.192C126.273 57.656 126.153 58.196 126.153 58.812C126.153 59.428 126.273 59.972 126.513 60.444C126.761 60.908 127.101 61.268 127.533 61.524C127.965 61.772 128.457 61.896 129.009 61.896ZM142.763 54.66L139.631 63H138.047L134.903 54.66H136.367L138.839 61.596L141.323 54.66H142.763ZM146.235 55.764V58.212H149.115V59.328H146.235V61.884H149.475V63H144.867V54.648H149.475V55.764H146.235ZM162.377 54.66L159.617 59.976V63H158.249V59.976L155.477 54.66H157.001L158.933 58.752L160.865 54.66H162.377ZM168.227 63.084C167.451 63.084 166.735 62.904 166.079 62.544C165.431 62.176 164.915 61.668 164.531 61.02C164.155 60.364 163.967 59.628 163.967 58.812C163.967 57.996 164.155 57.264 164.531 56.616C164.915 55.968 165.431 55.464 166.079 55.104C166.735 54.736 167.451 54.552 168.227 54.552C169.011 54.552 169.727 54.736 170.375 55.104C171.031 55.464 171.547 55.968 171.923 56.616C172.299 57.264 172.487 57.996 172.487 58.812C172.487 59.628 172.299 60.364 171.923 61.02C171.547 61.668 171.031 62.176 170.375 62.544C169.727 62.904 169.011 63.084 168.227 63.084ZM168.227 61.896C168.779 61.896 169.271 61.772 169.703 61.524C170.135 61.268 170.471 60.908 170.711 60.444C170.959 59.972 171.083 59.428 171.083 58.812C171.083 58.196 170.959 57.656 170.711 57.192C170.471 56.728 170.135 56.372 169.703 56.124C169.271 55.876 168.779 55.752 168.227 55.752C167.675 55.752 167.183 55.876 166.751 56.124C166.319 56.372 165.979 56.728 165.731 57.192C165.491 57.656 165.371 58.196 165.371 58.812C165.371 59.428 165.491 59.972 165.731 60.444C165.979 60.908 166.319 61.268 166.751 61.524C167.183 61.772 167.675 61.896 168.227 61.896ZM176.149 54.66V59.976C176.149 60.608 176.313 61.084 176.641 61.404C176.977 61.724 177.441 61.884 178.033 61.884C178.633 61.884 179.097 61.724 179.425 61.404C179.761 61.084 179.929 60.608 179.929 59.976V54.66H181.297V59.952C181.297 60.632 181.149 61.208 180.853 61.68C180.557 62.152 180.161 62.504 179.665 62.736C179.169 62.968 178.621 63.084 178.021 63.084C177.421 63.084 176.873 62.968 176.377 62.736C175.889 62.504 175.501 62.152 175.213 61.68C174.925 61.208 174.781 60.632 174.781 59.952V54.66H176.149ZM188.37 63L186.45 59.664H185.406V63H184.038V54.66H186.918C187.558 54.66 188.098 54.772 188.538 54.996C188.986 55.22 189.318 55.52 189.534 55.896C189.758 56.272 189.87 56.692 189.87 57.156C189.87 57.7 189.71 58.196 189.39 58.644C189.078 59.084 188.594 59.384 187.938 59.544L190.002 63H188.37ZM185.406 58.572H186.918C187.43 58.572 187.814 58.444 188.07 58.188C188.334 57.932 188.466 57.588 188.466 57.156C188.466 56.724 188.338 56.388 188.082 56.148C187.826 55.9 187.438 55.776 186.918 55.776H185.406V58.572ZM199.405 63.084C198.845 63.084 198.341 62.988 197.893 62.796C197.445 62.596 197.093 62.316 196.837 61.956C196.581 61.596 196.453 61.176 196.453 60.696H197.917C197.949 61.056 198.089 61.352 198.337 61.584C198.593 61.816 198.949 61.932 199.405 61.932C199.877 61.932 200.245 61.82 200.509 61.596C200.773 61.364 200.905 61.068 200.905 60.708C200.905 60.428 200.821 60.2 200.653 60.024C200.493 59.848 200.289 59.712 200.041 59.616C199.801 59.52 199.465 59.416 199.033 59.304C198.489 59.16 198.045 59.016 197.701 58.872C197.365 58.72 197.077 58.488 196.837 58.176C196.597 57.864 196.477 57.448 196.477 56.928C196.477 56.448 196.597 56.028 196.837 55.668C197.077 55.308 197.413 55.032 197.845 54.84C198.277 54.648 198.777 54.552 199.345 54.552C200.153 54.552 200.813 54.756 201.325 55.164C201.845 55.564 202.133 56.116 202.189 56.82H200.677C200.653 56.516 200.509 56.256 200.245 56.04C199.981 55.824 199.633 55.716 199.201 55.716C198.809 55.716 198.489 55.816 198.241 56.016C197.993 56.216 197.869 56.504 197.869 56.88C197.869 57.136 197.945 57.348 198.097 57.516C198.257 57.676 198.457 57.804 198.697 57.9C198.937 57.996 199.265 58.1 199.681 58.212C200.233 58.364 200.681 58.516 201.025 58.668C201.377 58.82 201.673 59.056 201.913 59.376C202.161 59.688 202.285 60.108 202.285 60.636C202.285 61.06 202.169 61.46 201.937 61.836C201.713 62.212 201.381 62.516 200.941 62.748C200.509 62.972 199.997 63.084 199.405 63.084ZM209.456 63L206.228 59.268V63H204.86V54.66H206.228V58.464L209.468 54.66H211.184L207.56 58.836L211.244 63H209.456ZM214.781 54.66V63H213.413V54.66H214.781ZM218.905 61.896H221.725V63H217.537V54.66H218.905V61.896ZM225.197 61.896H228.017V63H223.829V54.66H225.197V61.896ZM232.869 63.084C232.309 63.084 231.805 62.988 231.357 62.796C230.909 62.596 230.557 62.316 230.301 61.956C230.045 61.596 229.917 61.176 229.917 60.696H231.381C231.413 61.056 231.553 61.352 231.801 61.584C232.057 61.816 232.413 61.932 232.869 61.932C233.341 61.932 233.709 61.82 233.973 61.596C234.237 61.364 234.369 61.068 234.369 60.708C234.369 60.428 234.285 60.2 234.117 60.024C233.957 59.848 233.753 59.712 233.505 59.616C233.265 59.52 232.929 59.416 232.497 59.304C231.953 59.16 231.509 59.016 231.165 58.872C230.829 58.72 230.541 58.488 230.301 58.176C230.061 57.864 229.941 57.448 229.941 56.928C229.941 56.448 230.061 56.028 230.301 55.668C230.541 55.308 230.877 55.032 231.309 54.84C231.741 54.648 232.241 54.552 232.809 54.552C233.617 54.552 234.277 54.756 234.789 55.164C235.309 55.564 235.597 56.116 235.653 56.82H234.141C234.117 56.516 233.973 56.256 233.709 56.04C233.445 55.824 233.097 55.716 232.665 55.716C232.273 55.716 231.953 55.816 231.705 56.016C231.457 56.216 231.333 56.504 231.333 56.88C231.333 57.136 231.409 57.348 231.561 57.516C231.721 57.676 231.921 57.804 232.161 57.9C232.401 57.996 232.729 58.1 233.145 58.212C233.697 58.364 234.145 58.516 234.489 58.668C234.841 58.82 235.137 59.056 235.377 59.376C235.625 59.688 235.749 60.108 235.749 60.636C235.749 61.06 235.633 61.46 235.401 61.836C235.177 62.212 234.845 62.516 234.405 62.748C233.973 62.972 233.461 63.084 232.869 63.084ZM246.865 58.716C247.313 58.796 247.693 59.032 248.005 59.424C248.317 59.816 248.473 60.26 248.473 60.756C248.473 61.18 248.361 61.564 248.137 61.908C247.921 62.244 247.605 62.512 247.189 62.712C246.773 62.904 246.289 63 245.737 63H242.401V54.66H245.581C246.149 54.66 246.637 54.756 247.045 54.948C247.453 55.14 247.761 55.4 247.969 55.728C248.177 56.048 248.281 56.408 248.281 56.808C248.281 57.288 248.153 57.688 247.897 58.008C247.641 58.328 247.297 58.564 246.865 58.716ZM243.769 58.164H245.461C245.909 58.164 246.257 58.064 246.505 57.864C246.761 57.656 246.889 57.36 246.889 56.976C246.889 56.6 246.761 56.308 246.505 56.1C246.257 55.884 245.909 55.776 245.461 55.776H243.769V58.164ZM245.617 61.884C246.081 61.884 246.445 61.772 246.709 61.548C246.973 61.324 247.105 61.012 247.105 60.612C247.105 60.204 246.965 59.88 246.685 59.64C246.405 59.4 246.033 59.28 245.569 59.28H243.769V61.884H245.617ZM257.099 54.66L254.339 59.976V63H252.971V59.976L250.199 54.66H251.723L253.655 58.752L255.587 54.66H257.099ZM269.054 57.144C269.054 57.568 268.954 57.968 268.754 58.344C268.554 58.72 268.234 59.028 267.794 59.268C267.354 59.5 266.79 59.616 266.102 59.616H264.59V63H263.222V54.66H266.102C266.742 54.66 267.282 54.772 267.722 54.996C268.17 55.212 268.502 55.508 268.718 55.884C268.942 56.26 269.054 56.68 269.054 57.144ZM266.102 58.5C266.622 58.5 267.01 58.384 267.266 58.152C267.522 57.912 267.65 57.576 267.65 57.144C267.65 56.232 267.134 55.776 266.102 55.776H264.59V58.5H266.102ZM272.687 55.764V58.212H275.567V59.328H272.687V61.884H275.927V63H271.319V54.648H275.927V55.764H272.687ZM279.94 55.764V58.212H282.82V59.328H279.94V61.884H283.18V63H278.572V54.648H283.18V55.764H279.94ZM290.157 63L288.237 59.664H287.193V63H285.825V54.66H288.705C289.345 54.66 289.885 54.772 290.325 54.996C290.773 55.22 291.105 55.52 291.321 55.896C291.545 56.272 291.657 56.692 291.657 57.156C291.657 57.7 291.497 58.196 291.177 58.644C290.865 59.084 290.381 59.384 289.725 59.544L291.789 63H290.157ZM287.193 58.572H288.705C289.217 58.572 289.601 58.444 289.857 58.188C290.121 57.932 290.253 57.588 290.253 57.156C290.253 56.724 290.125 56.388 289.869 56.148C289.613 55.9 289.225 55.776 288.705 55.776H287.193V58.572ZM295.735 61.896H298.555V63H294.367V54.66H295.735V61.896ZM302.027 55.764V58.212H304.907V59.328H302.027V61.884H305.267V63H300.659V54.648H305.267V55.764H302.027ZM312.94 61.296H309.448L308.848 63H307.42L310.408 54.648H311.992L314.98 63H313.54L312.94 61.296ZM312.556 60.18L311.2 56.304L309.832 60.18H312.556ZM321.571 63L319.651 59.664H318.607V63H317.239V54.66H320.119C320.759 54.66 321.299 54.772 321.739 54.996C322.187 55.22 322.519 55.52 322.735 55.896C322.959 56.272 323.071 56.692 323.071 57.156C323.071 57.7 322.911 58.196 322.591 58.644C322.279 59.084 321.795 59.384 321.139 59.544L323.203 63H321.571ZM318.607 58.572H320.119C320.631 58.572 321.015 58.444 321.271 58.188C321.535 57.932 321.667 57.588 321.667 57.156C321.667 56.724 321.539 56.388 321.283 56.148C321.027 55.9 320.639 55.776 320.119 55.776H318.607V58.572ZM332.633 63H331.265L327.149 56.772V63H325.781V54.648H327.149L331.265 60.864V54.648H332.633V63ZM336.758 54.66V63H335.39V54.66H336.758ZM346.366 63H344.998L340.882 56.772V63H339.514V54.648H340.882L344.998 60.864V54.648H346.366V63ZM355.158 57.06C354.942 56.644 354.642 56.332 354.258 56.124C353.874 55.908 353.43 55.8 352.926 55.8C352.374 55.8 351.882 55.924 351.45 56.172C351.018 56.42 350.678 56.772 350.43 57.228C350.19 57.684 350.07 58.212 350.07 58.812C350.07 59.412 350.19 59.944 350.43 60.408C350.678 60.864 351.018 61.216 351.45 61.464C351.882 61.712 352.374 61.836 352.926 61.836C353.67 61.836 354.274 61.628 354.738 61.212C355.202 60.796 355.486 60.232 355.59 59.52H352.458V58.428H357.054V59.496C356.966 60.144 356.734 60.74 356.358 61.284C355.99 61.828 355.506 62.264 354.906 62.592C354.314 62.912 353.654 63.072 352.926 63.072C352.142 63.072 351.426 62.892 350.778 62.532C350.13 62.164 349.614 61.656 349.23 61.008C348.854 60.36 348.666 59.628 348.666 58.812C348.666 57.996 348.854 57.264 349.23 56.616C349.614 55.968 350.13 55.464 350.778 55.104C351.434 54.736 352.15 54.552 352.926 54.552C353.814 54.552 354.602 54.772 355.29 55.212C355.986 55.644 356.49 56.26 356.802 57.06H355.158Z" fill="#023047"/>
<path d="M101.894 8.476C104.681 8.476 107.125 9.02067 109.228 10.11C111.356 11.1993 112.99 12.7573 114.13 14.784C115.295 16.7853 115.878 19.116 115.878 21.776C115.878 24.436 115.295 26.7667 114.13 28.768C112.99 30.744 111.356 32.2767 109.228 33.366C107.125 34.4553 104.681 35 101.894 35H92.622V8.476H101.894ZM101.704 30.478C104.491 30.478 106.644 29.718 108.164 28.198C109.684 26.678 110.444 24.5373 110.444 21.776C110.444 19.0147 109.684 16.8613 108.164 15.316C106.644 13.7453 104.491 12.96 101.704 12.96H97.942V30.478H101.704ZM139.43 24.018C139.43 24.778 139.38 25.462 139.278 26.07H123.888C124.015 27.59 124.547 28.7807 125.484 29.642C126.422 30.5033 127.574 30.934 128.942 30.934C130.918 30.934 132.324 30.0853 133.16 28.388H138.898C138.29 30.4147 137.125 32.0867 135.402 33.404C133.68 34.696 131.564 35.342 129.056 35.342C127.03 35.342 125.206 34.8987 123.584 34.012C121.988 33.1 120.734 31.8207 119.822 30.174C118.936 28.5273 118.492 26.6273 118.492 24.474C118.492 22.2953 118.936 20.3827 119.822 18.736C120.709 17.0893 121.95 15.8227 123.546 14.936C125.142 14.0493 126.979 13.606 129.056 13.606C131.058 13.606 132.844 14.0367 134.414 14.898C136.01 15.7593 137.239 16.988 138.1 18.584C138.987 20.1547 139.43 21.966 139.43 24.018ZM133.92 22.498C133.895 21.13 133.401 20.0407 132.438 19.23C131.476 18.394 130.298 17.976 128.904 17.976C127.587 17.976 126.472 18.3813 125.56 19.192C124.674 19.9773 124.129 21.0793 123.926 22.498H133.92ZM151.369 35.342C149.647 35.342 148.101 35.038 146.733 34.43C145.365 33.7967 144.276 32.948 143.465 31.884C142.68 30.82 142.249 29.642 142.173 28.35H147.531C147.633 29.1607 148.025 29.832 148.709 30.364C149.419 30.896 150.293 31.162 151.331 31.162C152.345 31.162 153.13 30.9593 153.687 30.554C154.27 30.1487 154.561 29.6293 154.561 28.996C154.561 28.312 154.207 27.8053 153.497 27.476C152.813 27.1213 151.711 26.7413 150.191 26.336C148.621 25.956 147.329 25.5633 146.315 25.158C145.327 24.7527 144.466 24.132 143.731 23.296C143.022 22.46 142.667 21.3327 142.667 19.914C142.667 18.7487 142.997 17.6847 143.655 16.722C144.339 15.7593 145.302 14.9993 146.543 14.442C147.81 13.8847 149.292 13.606 150.989 13.606C153.497 13.606 155.499 14.2393 156.993 15.506C158.488 16.7473 159.311 18.432 159.463 20.56H154.371C154.295 19.724 153.941 19.0653 153.307 18.584C152.699 18.0773 151.876 17.824 150.837 17.824C149.875 17.824 149.127 18.0013 148.595 18.356C148.089 18.7107 147.835 19.2047 147.835 19.838C147.835 20.5473 148.19 21.092 148.899 21.472C149.609 21.8267 150.711 22.194 152.205 22.574C153.725 22.954 154.979 23.3467 155.967 23.752C156.955 24.1573 157.804 24.7907 158.513 25.652C159.248 26.488 159.628 27.6027 159.653 28.996C159.653 30.212 159.311 31.3013 158.627 32.264C157.969 33.2267 157.006 33.9867 155.739 34.544C154.498 35.076 153.041 35.342 151.369 35.342ZM166.718 11.44C165.781 11.44 164.996 11.1487 164.362 10.566C163.754 9.958 163.45 9.21066 163.45 8.324C163.45 7.43733 163.754 6.70266 164.362 6.12C164.996 5.512 165.781 5.208 166.718 5.208C167.656 5.208 168.428 5.512 169.036 6.12C169.67 6.70266 169.986 7.43733 169.986 8.324C169.986 9.21066 169.67 9.958 169.036 10.566C168.428 11.1487 167.656 11.44 166.718 11.44ZM169.34 13.948V35H164.02V13.948H169.34ZM182.843 13.606C184.413 13.606 185.794 13.9227 186.985 14.556C188.175 15.164 189.113 15.962 189.797 16.95V13.948H195.155V35.152C195.155 37.1027 194.762 38.838 193.977 40.358C193.191 41.9033 192.013 43.1193 190.443 44.006C188.872 44.918 186.972 45.374 184.743 45.374C181.753 45.374 179.296 44.6773 177.371 43.284C175.471 41.8907 174.394 39.9907 174.141 37.584H179.423C179.701 38.5467 180.297 39.3067 181.209 39.864C182.146 40.4467 183.273 40.738 184.591 40.738C186.136 40.738 187.39 40.2693 188.353 39.332C189.315 38.42 189.797 37.0267 189.797 35.152V31.884C189.113 32.872 188.163 33.6953 186.947 34.354C185.756 35.0127 184.388 35.342 182.843 35.342C181.069 35.342 179.448 34.886 177.979 33.974C176.509 33.062 175.344 31.7827 174.483 30.136C173.647 28.464 173.229 26.5513 173.229 24.398C173.229 22.27 173.647 20.3827 174.483 18.736C175.344 17.0893 176.497 15.8227 177.941 14.936C179.41 14.0493 181.044 13.606 182.843 13.606ZM189.797 24.474C189.797 23.182 189.543 22.08 189.037 21.168C188.53 20.2307 187.846 19.5213 186.985 19.04C186.123 18.5333 185.199 18.28 184.211 18.28C183.223 18.28 182.311 18.5207 181.475 19.002C180.639 19.4833 179.955 20.1927 179.423 21.13C178.916 22.042 178.663 23.1313 178.663 24.398C178.663 25.6647 178.916 26.7793 179.423 27.742C179.955 28.6793 180.639 29.4013 181.475 29.908C182.336 30.4147 183.248 30.668 184.211 30.668C185.199 30.668 186.123 30.4273 186.985 29.946C187.846 29.4393 188.53 28.73 189.037 27.818C189.543 26.8807 189.797 25.766 189.797 24.474ZM212.017 13.644C214.525 13.644 216.551 14.442 218.097 16.038C219.642 17.6087 220.415 19.8127 220.415 22.65V35H215.095V23.372C215.095 21.7 214.677 20.4207 213.841 19.534C213.005 18.622 211.865 18.166 210.421 18.166C208.951 18.166 207.786 18.622 206.925 19.534C206.089 20.4207 205.671 21.7 205.671 23.372V35H200.351V13.948H205.671V16.57C206.38 15.658 207.279 14.9487 208.369 14.442C209.483 13.91 210.699 13.644 212.017 13.644ZM241.852 8.476V12.77H230.794V19.572H239.268V23.79H230.794V35H225.474V8.476H241.852ZM265.194 24.018C265.194 24.778 265.143 25.462 265.042 26.07H249.652C249.779 27.59 250.311 28.7807 251.248 29.642C252.185 30.5033 253.338 30.934 254.706 30.934C256.682 30.934 258.088 30.0853 258.924 28.388H264.662C264.054 30.4147 262.889 32.0867 261.166 33.404C259.443 34.696 257.328 35.342 254.82 35.342C252.793 35.342 250.969 34.8987 249.348 34.012C247.752 33.1 246.498 31.8207 245.586 30.174C244.699 28.5273 244.256 26.6273 244.256 24.474C244.256 22.2953 244.699 20.3827 245.586 18.736C246.473 17.0893 247.714 15.8227 249.31 14.936C250.906 14.0493 252.743 13.606 254.82 13.606C256.821 13.606 258.607 14.0367 260.178 14.898C261.774 15.7593 263.003 16.988 263.864 18.584C264.751 20.1547 265.194 21.966 265.194 24.018ZM259.684 22.498C259.659 21.13 259.165 20.0407 258.202 19.23C257.239 18.394 256.061 17.976 254.668 17.976C253.351 17.976 252.236 18.3813 251.324 19.192C250.437 19.9773 249.893 21.0793 249.69 22.498H259.684ZM288.647 24.018C288.647 24.778 288.596 25.462 288.495 26.07H273.105C273.232 27.59 273.764 28.7807 274.701 29.642C275.638 30.5033 276.791 30.934 278.159 30.934C280.135 30.934 281.541 30.0853 282.377 28.388H288.115C287.507 30.4147 286.342 32.0867 284.619 33.404C282.896 34.696 280.781 35.342 278.273 35.342C276.246 35.342 274.422 34.8987 272.801 34.012C271.205 33.1 269.951 31.8207 269.039 30.174C268.152 28.5273 267.709 26.6273 267.709 24.474C267.709 22.2953 268.152 20.3827 269.039 18.736C269.926 17.0893 271.167 15.8227 272.763 14.936C274.359 14.0493 276.196 13.606 278.273 13.606C280.274 13.606 282.06 14.0367 283.631 14.898C285.227 15.7593 286.456 16.988 287.317 18.584C288.204 20.1547 288.647 21.966 288.647 24.018ZM283.137 22.498C283.112 21.13 282.618 20.0407 281.655 19.23C280.692 18.394 279.514 17.976 278.121 17.976C276.804 17.976 275.689 18.3813 274.777 19.192C273.89 19.9773 273.346 21.0793 273.143 22.498H283.137ZM291.162 24.398C291.162 22.27 291.58 20.3827 292.416 18.736C293.278 17.0893 294.443 15.8227 295.912 14.936C297.382 14.0493 299.016 13.606 300.814 13.606C302.182 13.606 303.487 13.91 304.728 14.518C305.97 15.1007 306.958 15.886 307.692 16.874V6.88H313.088V35H307.692V31.884C307.034 32.9227 306.109 33.7587 304.918 34.392C303.728 35.0253 302.347 35.342 300.776 35.342C299.003 35.342 297.382 34.886 295.912 33.974C294.443 33.062 293.278 31.7827 292.416 30.136C291.58 28.464 291.162 26.5513 291.162 24.398ZM307.73 24.474C307.73 23.182 307.477 22.08 306.97 21.168C306.464 20.2307 305.78 19.5213 304.918 19.04C304.057 18.5333 303.132 18.28 302.144 18.28C301.156 18.28 300.244 18.5207 299.408 19.002C298.572 19.4833 297.888 20.1927 297.356 21.13C296.85 22.042 296.596 23.1313 296.596 24.398C296.596 25.6647 296.85 26.7793 297.356 27.742C297.888 28.6793 298.572 29.4013 299.408 29.908C300.27 30.4147 301.182 30.668 302.144 30.668C303.132 30.668 304.057 30.4273 304.918 29.946C305.78 29.4393 306.464 28.73 306.97 27.818C307.477 26.8807 307.73 25.766 307.73 24.474ZM323.604 17.026C324.288 16.0127 325.225 15.1893 326.416 14.556C327.632 13.9227 329.013 13.606 330.558 13.606C332.357 13.606 333.978 14.0493 335.422 14.936C336.891 15.8227 338.044 17.0893 338.88 18.736C339.741 20.3573 340.172 22.2447 340.172 24.398C340.172 26.5513 339.741 28.464 338.88 30.136C338.044 31.7827 336.891 33.062 335.422 33.974C333.978 34.886 332.357 35.342 330.558 35.342C328.987 35.342 327.607 35.038 326.416 34.43C325.251 33.7967 324.313 32.986 323.604 31.998V35H318.284V6.88H323.604V17.026ZM334.738 24.398C334.738 23.1313 334.472 22.042 333.94 21.13C333.433 20.1927 332.749 19.4833 331.888 19.002C331.052 18.5207 330.14 18.28 329.152 18.28C328.189 18.28 327.277 18.5333 326.416 19.04C325.58 19.5213 324.896 20.2307 324.364 21.168C323.857 22.1053 323.604 23.2073 323.604 24.474C323.604 25.7407 323.857 26.8427 324.364 27.78C324.896 28.7173 325.58 29.4393 326.416 29.946C327.277 30.4273 328.189 30.668 329.152 30.668C330.14 30.668 331.052 30.4147 331.888 29.908C332.749 29.4013 333.433 28.6793 333.94 27.742C334.472 26.8047 334.738 25.69 334.738 24.398ZM342.67 24.398C342.67 22.27 343.088 20.3827 343.924 18.736C344.785 17.0893 345.938 15.8227 347.382 14.936C348.851 14.0493 350.485 13.606 352.284 13.606C353.855 13.606 355.223 13.9227 356.388 14.556C357.579 15.1893 358.529 15.9873 359.238 16.95V13.948H364.596V35H359.238V31.922C358.554 32.91 357.604 33.7333 356.388 34.392C355.197 35.0253 353.817 35.342 352.246 35.342C350.473 35.342 348.851 34.886 347.382 33.974C345.938 33.062 344.785 31.7827 343.924 30.136C343.088 28.464 342.67 26.5513 342.67 24.398ZM359.238 24.474C359.238 23.182 358.985 22.08 358.478 21.168C357.971 20.2307 357.287 19.5213 356.426 19.04C355.565 18.5333 354.64 18.28 353.652 18.28C352.664 18.28 351.752 18.5207 350.916 19.002C350.08 19.4833 349.396 20.1927 348.864 21.13C348.357 22.042 348.104 23.1313 348.104 24.398C348.104 25.6647 348.357 26.7793 348.864 27.742C349.396 28.6793 350.08 29.4013 350.916 29.908C351.777 30.4147 352.689 30.668 353.652 30.668C354.64 30.668 355.565 30.4273 356.426 29.946C357.287 29.4393 357.971 28.73 358.478 27.818C358.985 26.8807 359.238 25.766 359.238 24.474ZM368.424 24.474C368.424 22.2953 368.867 20.3953 369.754 18.774C370.641 17.1273 371.869 15.8607 373.44 14.974C375.011 14.062 376.809 13.606 378.836 13.606C381.445 13.606 383.599 14.2647 385.296 15.582C387.019 16.874 388.171 18.698 388.754 21.054H383.016C382.712 20.142 382.193 19.4327 381.458 18.926C380.749 18.394 379.862 18.128 378.798 18.128C377.278 18.128 376.075 18.6853 375.188 19.8C374.301 20.8893 373.858 22.4473 373.858 24.474C373.858 26.4753 374.301 28.0333 375.188 29.148C376.075 30.2373 377.278 30.782 378.798 30.782C380.951 30.782 382.357 29.8193 383.016 27.894H388.754C388.171 30.174 387.019 31.9853 385.296 33.328C383.573 34.6707 381.42 35.342 378.836 35.342C376.809 35.342 375.011 34.8987 373.44 34.012C371.869 33.1 370.641 31.8333 369.754 30.212C368.867 28.5653 368.424 26.6527 368.424 24.474ZM405.115 35L397.971 26.032V35H392.651V6.88H397.971V22.878L405.039 13.948H411.955L402.683 24.512L412.031 35H405.115Z" fill="#023047"/>
</g>
<defs>
<clipPath id="clip0">
<rect width="414" height="71" fill="white"/>
</clipPath>
</defs>
</svg>
